<?xml version="1.0" encoding="utf-8"?>
<!-- Generator: Adobe Illustrator 27.0.0, SVG Export Plug-In . SVG Version: 6.00 Build 0)  -->
<svg version="1.1" xmlns="http://www.w3.org/2000/svg" xmlns:xlink="http://www.w3.org/1999/xlink" x="0px" y="0px"
	 viewBox="0 0 768 768" style="enable-background:new 0 0 768 768;" xml:space="preserve">
<style type="text/css">
	.st0{fill:#253FD0;}
	.st1{fill:none;}
	.st2{fill:#FFFFFF;}
</style>
<g id="레이어_1">
	<path class="st0" d="M738.6,768H29.4C13.2,768,0,754.8,0,738.6V29.4C0,13.2,13.2,0,29.4,0h709.2C754.8,0,768,13.2,768,29.4v709.2
		C768,754.8,754.8,768,738.6,768z"/>
	<line class="st1" x1="-529" y1="57" x2="-458.3" y2="-13.7"/>
	<path class="st2" d="M589,560l-71.9-257.1L409,536.4c-5.5,12.3-13.5,24.6-25.6,24.6c-7.4,0-20.3-7.7-26.7-23L250.2,308.7L179.8,560
		h-48.7l88.8-319.1C224,224.3,235.6,216,245,216c6.4,0,16.9,3.2,24.6,20.6L382.9,489l111.9-252.4c5.7-13.7,13.8-20.6,24.6-20.6
		c14.7,0,24.4,8.3,29.2,24.9L637.7,560H589z"/>
</g>
<g id="레이어_2">
</g>
</svg>
